<svg width="36" height="36" viewBox="0 0 36 36" fill="none" xmlns="http://www.w3.org/2000/svg">
<path d="M17.82 13.71C19.74 13.8 20.235 15.435 20.265 16.2H22.95C22.83 13.23 20.715 11.415 17.775 11.415C14.46 11.415 12 13.5 12 18.21C12 21.12 13.395 24.57 17.76 24.57C21.09 24.57 22.875 22.095 22.92 20.145H20.235C20.19 21.03 19.56 22.215 17.79 22.305C15.825 22.245 15 20.715 15 18.21C15 13.875 16.92 13.74 17.82 13.71ZM18 3C9.72 3 3 9.72 3 18C3 26.28 9.72 33 18 33C26.28 33 33 26.28 33 18C33 9.72 26.28 3 18 3ZM18 30C11.385 30 6 24.615 6 18C6 11.385 11.385 6 18 6C24.615 6 30 11.385 30 18C30 24.615 24.615 30 18 30Z" fill="#272B33"/>
</svg>
