<svg xmlns="http://www.w3.org/2000/svg" width="24" height="24" viewBox="0 0 24 24" fill="none">
  <path d="M6.00001 12.0498C6.00001 12.3165 6.01668 12.5791 6.05001 12.8378C6.08334 13.0965 6.14168 13.3505 6.22501 13.5998C6.30834 13.8831 6.30001 14.1541 6.20001 14.4128C6.10001 14.6715 5.92501 14.8588 5.67501 14.9748C5.40834 15.1081 5.14601 15.1208 4.88801 15.0128C4.63001 14.9048 4.45901 14.7088 4.37501 14.4248C4.24168 14.0415 4.14568 13.6498 4.08701 13.2498C4.02834 12.8498 3.99934 12.4498 4.00001 12.0498C4.00001 9.81647 4.77501 7.91647 6.32501 6.3498C7.87501 4.78314 9.76668 3.9998 12 3.9998H12.175L11.275 3.0998C11.0917 2.91647 11 2.68314 11 2.3998C11 2.11647 11.0917 1.88314 11.275 1.6998C11.4583 1.51647 11.6917 1.4248 11.975 1.4248C12.2583 1.4248 12.4917 1.51647 12.675 1.6998L15.275 4.2998C15.475 4.4998 15.575 4.73314 15.575 4.9998C15.575 5.26647 15.475 5.4998 15.275 5.6998L12.675 8.2998C12.4917 8.48314 12.2583 8.5748 11.975 8.5748C11.6917 8.5748 11.4583 8.48314 11.275 8.2998C11.0917 8.11647 11 7.88314 11 7.5998C11 7.31647 11.0917 7.08314 11.275 6.89981L12.175 5.9998H12C10.3333 5.9998 8.91668 6.58747 7.75001 7.7628C6.58334 8.93814 6.00001 10.3671 6.00001 12.0498ZM18 11.9498C18 11.6831 17.9833 11.4208 17.95 11.1628C17.9167 10.9048 17.8583 10.6505 17.775 10.3998C17.6917 10.1165 17.7 9.84581 17.8 9.5878C17.9 9.3298 18.075 9.14214 18.325 9.0248C18.5917 8.89147 18.854 8.87914 19.112 8.9878C19.37 9.09647 19.541 9.29214 19.625 9.5748C19.7583 9.95814 19.8543 10.3498 19.913 10.7498C19.9717 11.1498 20.0007 11.5498 20 11.9498C20 14.1831 19.225 16.0831 17.675 17.6498C16.125 19.2165 14.2333 19.9998 12 19.9998H11.825L12.725 20.8998C12.9083 21.0831 13 21.3165 13 21.5998C13 21.8831 12.9083 22.1165 12.725 22.2998C12.5417 22.4831 12.3083 22.5748 12.025 22.5748C11.7417 22.5748 11.5083 22.4831 11.325 22.2998L8.72501 19.6998C8.52501 19.4998 8.42501 19.2665 8.42501 18.9998C8.42501 18.7331 8.52501 18.4998 8.72501 18.2998L11.325 15.6998C11.5083 15.5165 11.7417 15.4248 12.025 15.4248C12.3083 15.4248 12.5417 15.5165 12.725 15.6998C12.9083 15.8831 13 16.1165 13 16.3998C13 16.6831 12.9083 16.9165 12.725 17.0998L11.825 17.9998H12C13.6667 17.9998 15.0833 17.4125 16.25 16.2378C17.4167 15.0631 18 13.6338 18 11.9498Z" fill="#007BFF"/>
</svg>