<svg xmlns="http://www.w3.org/2000/svg" width="24" height="24" viewBox="0 0 24 24" fill="none">
  <path d="M4.126 19.9996C3.97 19.9996 3.832 19.9626 3.712 19.8886C3.592 19.8146 3.49867 19.717 3.432 19.5956C3.36 19.4763 3.32 19.3473 3.312 19.2086C3.30534 19.0693 3.34467 18.929 3.43 18.7876L11.3 5.21162C11.3853 5.07028 11.488 4.96762 11.608 4.90362C11.728 4.83962 11.8587 4.80762 12 4.80762C12.1413 4.80762 12.2717 4.83962 12.391 4.90362C12.5103 4.96762 12.613 5.07028 12.699 5.21162L20.57 18.7876C20.6553 18.929 20.6943 19.0689 20.687 19.2076C20.6803 19.3476 20.6403 19.477 20.567 19.5956C20.5003 19.717 20.407 19.8146 20.287 19.8886C20.167 19.9626 20.0293 19.9996 19.874 19.9996H4.126ZM4.45 18.9996H19.55L12 5.99962L4.45 18.9996ZM12 17.6156C12.1747 17.6156 12.321 17.5566 12.439 17.4386C12.557 17.3206 12.6157 17.1743 12.615 16.9996C12.6143 16.825 12.5553 16.679 12.438 16.5616C12.3207 16.4443 12.1747 16.385 12 16.3836C11.8253 16.3823 11.6793 16.4413 11.562 16.5606C11.4447 16.68 11.3857 16.8263 11.385 16.9996C11.3843 17.1729 11.4433 17.3193 11.562 17.4386C11.6807 17.5579 11.8267 17.6169 12 17.6156ZM12 15.3846C12.1427 15.3846 12.2617 15.3366 12.357 15.2406C12.4523 15.1446 12.5 15.026 12.5 14.8846V10.8846C12.5 10.7426 12.452 10.6236 12.356 10.5276C12.26 10.4316 12.141 10.384 11.999 10.3846C11.857 10.3853 11.7383 10.433 11.643 10.5276C11.5477 10.6223 11.5 10.7413 11.5 10.8846V14.8846C11.5 15.026 11.548 15.1446 11.644 15.2406C11.74 15.3366 11.859 15.3846 12.001 15.3846" fill="#FF0000"/>
</svg>