<svg xmlns="http://www.w3.org/2000/svg" width="17" height="18" viewBox="0 0 17 18" fill="none">
  <path fill-rule="evenodd" clip-rule="evenodd" d="M11.775 2.7125V4.6625L13.025 3.425V1.125L12.4 0.5H1.15L0.525 1.125V1.7325L0.5 1.75V14.6125L0.95 15.1875L7.2 17.3375L8 16.75V15.5H12.4L13.025 14.875V12.6125L11.775 11.3625V14.25H8V3.8875L7.5875 3.3125L3.045 1.75H11.775V2.7125ZM6.75 15.85L1.75 14.175V2.65L6.75 4.325V15.85ZM14.9 8.6H8.6875V7.35H14.85L12.85 5.35L13.7375 4.475L16.825 7.55V8.4375L13.7125 11.5375L12.8375 10.6625L14.9 8.6Z" fill="#FF0000"/>
</svg>