<svg xmlns="http://www.w3.org/2000/svg" width="12" height="12" viewBox="0 0 12 12" fill="none">
  <path
    d="M2.50019 1.50001L2.50019 10.5C2.50048 10.5911 2.52561 10.6805 2.57288 10.7584C2.62015 10.8363 2.68777 10.8998 2.76847 10.9421C2.84916 10.9844 2.93987 11.004 3.03083 10.9986C3.1218 10.9932 3.20956 10.9631 3.28469 10.9115L9.78469 6.41151C10.0542 6.22501 10.0542 5.77601 9.78469 5.58901L3.28469 1.08901C3.20972 1.03692 3.12191 1.00638 3.03079 1.00069C2.93968 0.99501 2.84875 1.0144 2.76789 1.05677C2.68702 1.09913 2.61932 1.16285 2.57212 1.24099C2.52493 1.31914 2.50005 1.40872 2.50019 1.50001Z"
    fill="#808B96"
  />
</svg>
