<svg xmlns="http://www.w3.org/2000/svg" width="12" height="12" viewBox="0 0 12 12" fill="none">
  <path d="M10.5002 2.50001L1.5002 2.50001C1.40908 2.50029 1.31976 2.52543 1.24186 2.5727C1.16396 2.61997 1.10043 2.68759 1.0581 2.76829C1.01578 2.84898 0.996259 2.93969 1.00165 3.03065C1.00704 3.12161 1.03714 3.20938 1.0887 3.28451L5.5887 9.78451C5.7752 10.054 6.2242 10.054 6.4112 9.78451L10.9112 3.28451C10.9633 3.20954 10.9938 3.12172 10.9995 3.03061C11.0052 2.9395 10.9858 2.84857 10.9434 2.76771C10.9011 2.68684 10.8374 2.61913 10.7592 2.57194C10.6811 2.52474 10.5915 2.49987 10.5002 2.50001Z" fill="#808B96"/>
</svg>